<?xml version="1.0" encoding="UTF-8" standalone="no"?>
<svg xmlns="http://www.w3.org/2000/svg" width="32" height="32" viewBox="0 0 32 32">
  <defs>
    <linearGradient id="spadeGradient" x1="0%" y1="0%" x2="100%" y2="100%">
      <stop offset="0%" style="stop-color:#3498db;stop-opacity:1" />
      <stop offset="100%" style="stop-color:#2c3e50;stop-opacity:1" />
    </linearGradient>
  </defs>
  
  <!-- Background -->
  <rect x="0" y="0" width="32" height="32" rx="4" fill="white"/>
  
  <!-- Spade Symbol -->
  <path d="M16,4 C11,4 8,10 8,16 C8,20 11,23 14,23 C15,23 16,22 16,22 C16,22 17,23 18,23 C21,23 24,20 24,16 C24,10 21,4 16,4 Z" 
        fill="url(#spadeGradient)" />
  
  <!-- Simplified stem -->
  <path d="M16,22 L16,26 C16,28 19,28 19,26 C19,24 18,24 16,25" 
        fill="#2c3e50" />
</svg>
