<?xml version="1.0" encoding="UTF-8" standalone="no"?>
<svg xmlns="http://www.w3.org/2000/svg" width="200" height="200" viewBox="0 0 200 200">
  <defs>
    <linearGradient id="spadeGradient" x1="0%" y1="0%" x2="100%" y2="100%">
      <stop offset="0%" style="stop-color:#3498db;stop-opacity:1" />
      <stop offset="100%" style="stop-color:#2c3e50;stop-opacity:1" />
    </linearGradient>
  </defs>
  
  <!-- Circle Background -->
  <circle cx="100" cy="100" r="95" fill="white" stroke="#3498db" stroke-width="3"/>
  
  <!-- Spade Symbol -->
  <path d="M100,30 C85,30 55,65 55,95 C55,115 70,130 90,130 C95,130 100,128 100,128 C100,128 105,130 110,130 C130,130 145,115 145,95 C145,65 115,30 100,30 Z" 
        fill="url(#spadeGradient)" />
  
  <!-- Stem of the Spade -->
  <path d="M100,128 L100,165 Q100,170 110,170 L120,170 Q130,170 130,160 Q130,150 120,150 Q110,150 100,160" 
        fill="url(#spadeGradient)" />
  
  <!-- Python Element (Snake around the edge) -->
  <path d="M145,95 C175,95 175,130 145,160 C125,180 75,180 55,160 C25,130 25,70 55,40 C75,20 125,20 145,40 C175,70 175,95 145,95" 
        fill="none" stroke="#2ecc71" stroke-width="6" stroke-linecap="round" stroke-dasharray="2,8"/>
  
  <!-- Text SPADE -->
  <text x="100" y="95" font-family="Arial, sans-serif" font-size="20" font-weight="bold" text-anchor="middle" fill="white">SPADE</text>
</svg>
