<?xml version="1.0" encoding="UTF-8" standalone="no"?>
<svg xmlns="http://www.w3.org/2000/svg" width="200" height="200" viewBox="0 0 200 200">
  <defs>
    <linearGradient id="pythonGradient" x1="0%" y1="0%" x2="100%" y2="100%">
      <stop offset="0%" style="stop-color:#306998;stop-opacity:1" />  <!-- Python blue -->
      <stop offset="100%" style="stop-color:#FFD43B;stop-opacity:1" /> <!-- Python yellow -->
    </linearGradient>
    <linearGradient id="agentGradient" x1="0%" y1="0%" x2="100%" y2="100%">
      <stop offset="0%" style="stop-color:#3498db;stop-opacity:1" />
      <stop offset="100%" style="stop-color:#2980b9;stop-opacity:1" />
    </linearGradient>
    <filter id="shadow" x="-20%" y="-20%" width="140%" height="140%">
      <feGaussianBlur in="SourceAlpha" stdDeviation="2"/>
      <feOffset dx="1" dy="1" result="offsetblur"/>
      <feComponentTransfer>
        <feFuncA type="linear" slope="0.3"/>
      </feComponentTransfer>
      <feMerge> 
        <feMergeNode/>
        <feMergeNode in="SourceGraphic"/> 
      </feMerge>
    </filter>
  </defs>
  
  <!-- Background hexagon -->
  <polygon points="100,20 170,50 170,150 100,180 30,150 30,50" 
           fill="white" stroke="#e0e0e0" stroke-width="2" filter="url(#shadow)"/>
  
  <!-- Central node - hexagon representing the SPADE platform -->
  <polygon points="100,60 130,75 130,125 100,140 70,125 70,75" 
           fill="url(#pythonGradient)" stroke="#306998" stroke-width="1"/>
  
  <!-- Satellite agent nodes -->
  <g>
    <!-- Agent 1 -->
    <circle cx="50" cy="50" r="15" fill="url(#agentGradient)"/>
    <text x="50" y="53" text-anchor="middle" font-size="12" fill="white">A</text>
    
    <!-- Agent 2 -->
    <circle cx="150" cy="50" r="15" fill="url(#agentGradient)"/>
    <text x="150" y="53" text-anchor="middle" font-size="12" fill="white">A</text>
    
    <!-- Agent 3 -->
    <circle cx="40" cy="120" r="15" fill="url(#agentGradient)"/>
    <text x="40" y="123" text-anchor="middle" font-size="12" fill="white">A</text>
    
    <!-- Agent 4 -->
    <circle cx="160" cy="120" r="15" fill="url(#agentGradient)"/>
    <text x="160" y="123" text-anchor="middle" font-size="12" fill="white">A</text>
  </g>
  
  <!-- Connection lines representing XMPP communication -->
  <g stroke="#3498db" stroke-width="2" stroke-dasharray="5,3">
    <line x1="65" y1="75" x2="50" y2="65" />
    <line x1="135" y1="75" x2="150" y2="65" />
    <line x1="70" y1="125" x2="55" y2="120" />
    <line x1="130" y1="125" x2="145" y2="120" />
  </g>
  
  <!-- XMPP message icons -->
  <g>
    <rect x="55" y="58" width="10" height="7" fill="white" stroke="#3498db" rx="2"/>
    <rect x="135" y="58" width="10" height="7" fill="white" stroke="#3498db" rx="2"/>
    <rect x="55" y="115" width="10" height="7" fill="white" stroke="#3498db" rx="2"/>
    <rect x="135" y="115" width="10" height="7" fill="white" stroke="#3498db" rx="2"/>
  </g>
  
  <!-- S symbol for SPADE in the center -->
  <path d="M100,80 C95,80 90,85 90,90 C90,95 95,100 100,100 C105,100 110,105 110,110 C110,115 105,120 100,120" 
        stroke="white" stroke-width="3" fill="none" stroke-linecap="round"/>
</svg>
