<?xml version="1.0" encoding="UTF-8" standalone="no"?>
<svg xmlns="http://www.w3.org/2000/svg" width="200" height="200" viewBox="0 0 200 200">
  <defs>
    <linearGradient id="bluePurpleGradient" x1="0%" y1="0%" x2="100%" y2="100%">
      <stop offset="0%" style="stop-color:#3498db;stop-opacity:1" />
      <stop offset="100%" style="stop-color:#9b59b6;stop-opacity:1" />
    </linearGradient>
    <linearGradient id="greenTealGradient" x1="0%" y1="0%" x2="100%" y2="100%">
      <stop offset="0%" style="stop-color:#2ecc71;stop-opacity:1" />
      <stop offset="100%" style="stop-color:#1abc9c;stop-opacity:1" />
    </linearGradient>
    <filter id="glow" x="-30%" y="-30%" width="160%" height="160%">
      <feGaussianBlur stdDeviation="3" result="blur" />
      <feComposite in="SourceGraphic" in2="blur" operator="over" />
    </filter>
  </defs>
  
  <!-- Dark background -->
  <rect x="0" y="0" width="200" height="200" fill="#121212"/>
  
  <!-- Hexagonal network -->
  <g stroke-width="2" stroke-linecap="round" stroke-linejoin="round">
    <!-- Hexagon outline -->
    <polygon points="100,30 160,60 160,140 100,170 40,140 40,60" 
             fill="none" stroke="url(#bluePurpleGradient)" stroke-width="2"/>
    
    <!-- Internal network grid -->
    <line x1="100" y1="30" x2="100" y2="170" stroke="url(#bluePurpleGradient)" stroke-width="1.5" stroke-opacity="0.5"/>
    <line x1="40" y1="60" x2="160" y2="140" stroke="url(#bluePurpleGradient)" stroke-width="1.5" stroke-opacity="0.5"/>
    <line x1="40" y1="140" x2="160" y2="60" stroke="url(#bluePurpleGradient)" stroke-width="1.5" stroke-opacity="0.5"/>
    
    <!-- S-shaped path through the network representing SPADE -->
    <path d="M70,60 C90,60 130,70 130,100 C130,130 70,140 90,170" 
          fill="none" stroke="url(#greenTealGradient)" stroke-width="4" filter="url(#glow)"/>
    
    <!-- Agent nodes -->
    <circle cx="70" cy="60" r="8" fill="url(#greenTealGradient)" filter="url(#glow)"/>
    <circle cx="130" cy="100" r="8" fill="url(#greenTealGradient)" filter="url(#glow)"/>
    <circle cx="90" cy="170" r="8" fill="url(#greenTealGradient)" filter="url(#glow)"/>
    
    <!-- Main central node representing the platform -->
    <circle cx="100" cy="100" r="15" fill="url(#bluePurpleGradient)" filter="url(#glow)"/>
    
    <!-- Additional network nodes -->
    <circle cx="160" cy="60" r="6" fill="url(#bluePurpleGradient)" filter="url(#glow)"/>
    <circle cx="160" cy="140" r="6" fill="url(#bluePurpleGradient)" filter="url(#glow)"/>
    <circle cx="40" cy="60" r="6" fill="url(#bluePurpleGradient)" filter="url(#glow)"/>
    <circle cx="40" cy="140" r="6" fill="url(#bluePurpleGradient)" filter="url(#glow)"/>
  </g>
</svg>
