<?xml version="1.0" encoding="UTF-8" standalone="no"?>
<svg xmlns="http://www.w3.org/2000/svg" width="200" height="200" viewBox="0 0 200 200">
  <defs>
    <linearGradient id="agentGradient" x1="0%" y1="0%" x2="100%" y2="100%">
      <stop offset="0%" style="stop-color:#3498db;stop-opacity:1" />
      <stop offset="100%" style="stop-color:#2980b9;stop-opacity:1" />
    </linearGradient>
    <linearGradient id="behaviorGradient1" x1="0%" y1="0%" x2="100%" y2="100%">
      <stop offset="0%" style="stop-color:#2ecc71;stop-opacity:1" />
      <stop offset="100%" style="stop-color:#27ae60;stop-opacity:1" />
    </linearGradient>
    <linearGradient id="behaviorGradient2" x1="0%" y1="0%" x2="100%" y2="100%">
      <stop offset="0%" style="stop-color:#e74c3c;stop-opacity:1" />
      <stop offset="100%" style="stop-color:#c0392b;stop-opacity:1" />
    </linearGradient>
    <linearGradient id="behaviorGradient3" x1="0%" y1="0%" x2="100%" y2="100%">
      <stop offset="0%" style="stop-color:#f1c40f;stop-opacity:1" />
      <stop offset="100%" style="stop-color:#f39c12;stop-opacity:1" />
    </linearGradient>
    <filter id="shadow" x="-20%" y="-20%" width="140%" height="140%">
      <feGaussianBlur in="SourceAlpha" stdDeviation="2"/>
      <feOffset dx="1" dy="1" result="offsetblur"/>
      <feComponentTransfer>
        <feFuncA type="linear" slope="0.3"/>
      </feComponentTransfer>
      <feMerge> 
        <feMergeNode/>
        <feMergeNode in="SourceGraphic"/> 
      </feMerge>
    </filter>
  </defs>
  
  <!-- Background -->
  <circle cx="100" cy="100" r="90" fill="white" stroke="#e0e0e0" stroke-width="2"/>
  
  <!-- Agent figure (central circle) -->
  <circle cx="100" cy="100" r="30" fill="url(#agentGradient)" filter="url(#shadow)"/>
  
  <!-- Behavior circles (orbiting the agent) -->
  <!-- Cyclic Behavior -->
  <circle cx="100" cy="40" r="20" fill="url(#behaviorGradient1)" filter="url(#shadow)"/>
  <path d="M100,35 L100,45 M95,40 L105,40" stroke="white" stroke-width="2" stroke-linecap="round"/>
  <circle cx="100" cy="40" r="12" fill="none" stroke="white" stroke-width="2" stroke-dasharray="2,2"/>
  
  <!-- OneShot Behavior -->
  <circle cx="160" cy="100" r="20" fill="url(#behaviorGradient2)" filter="url(#shadow)"/>
  <path d="M155,95 L165,105 M155,105 L165,95" stroke="white" stroke-width="2" stroke-linecap="round"/>
  
  <!-- Periodic Behavior -->
  <circle cx="100" cy="160" r="20" fill="url(#behaviorGradient3)" filter="url(#shadow)"/>
  <path d="M95,155 L95,165 M105,155 L105,165 M95,160 L105,160" stroke="white" stroke-width="2" stroke-linecap="round"/>
  
  <!-- FSM Behavior -->
  <circle cx="40" cy="100" r="20" fill="url(#behaviorGradient1)" filter="url(#shadow)"/>
  <rect x="33" y="93" width="14" height="14" fill="none" stroke="white" stroke-width="2" rx="2"/>
  
  <!-- Connecting arcs -->
  <g fill="none" stroke="#3498db" stroke-width="2" stroke-dasharray="5,3">
    <path d="M100,70 A30,30 0 0,1 130,100" />
    <path d="M130,100 A30,30 0 0,1 100,130" />
    <path d="M100,130 A30,30 0 0,1 70,100" />
    <path d="M70,100 A30,30 0 0,1 100,70" />
  </g>
  
  <!-- S for SPADE in the center -->
  <path d="M100,90 C95,90 90,92 90,97 C90,102 95,105 100,105 C105,105 110,108 110,113 C110,118 105,120 100,120" 
        stroke="white" stroke-width="3" fill="none" stroke-linecap="round"/>
</svg>
