<?xml version="1.0" encoding="UTF-8" standalone="no"?>
<svg xmlns="http://www.w3.org/2000/svg" width="200" height="200" viewBox="0 0 200 200">
  <defs>
    <linearGradient id="blueGradient" x1="0%" y1="0%" x2="100%" y2="100%">
      <stop offset="0%" style="stop-color:#3498db;stop-opacity:1" />
      <stop offset="100%" style="stop-color:#2c3e50;stop-opacity:1" />
    </linearGradient>
    <filter id="shadow" x="-20%" y="-20%" width="140%" height="140%">
      <feGaussianBlur in="SourceAlpha" stdDeviation="2"/>
      <feOffset dx="1" dy="1" result="offsetblur"/>
      <feComponentTransfer>
        <feFuncA type="linear" slope="0.3"/>
      </feComponentTransfer>
      <feMerge> 
        <feMergeNode/>
        <feMergeNode in="SourceGraphic"/> 
      </feMerge>
    </filter>
  </defs>
  
  <!-- Logo background -->
  <rect x="10" y="10" width="180" height="180" rx="15" fill="white"/>
  
  <!-- Abstract representation of multi-agent system -->
  <g filter="url(#shadow)">
    <!-- Center hexagon representing platform -->
    <polygon points="100,60 130,75 130,125 100,140 70,125 70,75" fill="url(#blueGradient)"/>
    
    <!-- Connecting lines representing communication -->
    <line x1="130" y1="75" x2="160" y2="60" stroke="#3498db" stroke-width="3"/>
    <line x1="130" y1="125" x2="160" y2="140" stroke="#3498db" stroke-width="3"/>
    <line x1="70" y1="125" x2="40" y2="140" stroke="#3498db" stroke-width="3"/>
    <line x1="70" y1="75" x2="40" y2="60" stroke="#3498db" stroke-width="3"/>
    
    <!-- Agent nodes -->
    <circle cx="160" cy="60" r="12" fill="#2ecc71"/>
    <circle cx="160" cy="140" r="12" fill="#2ecc71"/>
    <circle cx="40" cy="140" r="12" fill="#2ecc71"/>
    <circle cx="40" cy="60" r="12" fill="#2ecc71"/>
    
    <!-- Data flow symbols -->
    <circle cx="145" cy="75" r="3" fill="white"/>
    <circle cx="115" cy="125" r="3" fill="white"/>
    <circle cx="85" cy="125" r="3" fill="white"/>
    <circle cx="55" cy="75" r="3" fill="white"/>
  </g>
  
  <!-- SPADE text -->
  <text x="100" y="105" font-family="'Segoe UI', Arial, sans-serif" font-size="18" font-weight="bold" text-anchor="middle" fill="white">SPADE</text>
  
  <!-- Tagline -->
  <text x="100" y="175" font-family="'Segoe UI', Arial, sans-serif" font-size="12" text-anchor="middle" fill="#2c3e50">Smart Python Agent Development</text>
</svg>
