<?xml version="1.0" encoding="UTF-8" standalone="no"?>
<svg xmlns="http://www.w3.org/2000/svg" width="200" height="200" viewBox="0 0 200 200">
  <defs>
    <linearGradient id="blueGradient" x1="0%" y1="0%" x2="100%" y2="100%">
      <stop offset="0%" style="stop-color:#3498db;stop-opacity:1" />
      <stop offset="100%" style="stop-color:#2c3e50;stop-opacity:1" />
    </linearGradient>
  </defs>
  
  <!-- Clean background -->
  <rect x="0" y="0" width="200" height="200" fill="white"/>
  
  <!-- Minimalist agent network representation -->
  <g stroke-linecap="round" stroke-linejoin="round">
    <!-- Central node -->
    <circle cx="100" cy="100" r="20" fill="url(#blueGradient)"/>
    
    <!-- Stylized S from SPADE -->
    <path d="M100,90 C95,90 90,92 90,97 C90,102 95,105 100,105 C105,105 110,108 110,113 C110,118 105,120 100,120" 
          stroke="white" stroke-width="3" fill="none"/>
    
    <!-- Agent network - minimalist representation -->
    <g stroke="#3498db" stroke-width="2">
      <!-- Network paths -->
      <path d="M100,80 L100,40" />
      <path d="M100,120 L100,160" />
      <path d="M80,100 L40,100" />
      <path d="M120,100 L160,100" />
      
      <!-- Diagonal paths -->
      <path d="M115,85 L145,55" />
      <path d="M85,85 L55,55" />
      <path d="M115,115 L145,145" />
      <path d="M85,115 L55,145" />
    </g>
    
    <!-- Node points -->
    <g fill="#2ecc71">
      <circle cx="100" cy="40" r="8" />
      <circle cx="40" cy="100" r="8" />
      <circle cx="160" cy="100" r="8" />
      <circle cx="100" cy="160" r="8" />
      
      <circle cx="145" cy="55" r="8" />
      <circle cx="55" cy="55" r="8" />
      <circle cx="145" cy="145" r="8" />
      <circle cx="55" cy="145" r="8" />
    </g>
  </g>
</svg>
