<?xml version="1.0" encoding="UTF-8" standalone="no"?>
<svg xmlns="http://www.w3.org/2000/svg" width="200" height="200" viewBox="0 0 200 200">
  <defs>
    <linearGradient id="blueGradient" x1="0%" y1="0%" x2="100%" y2="100%">
      <stop offset="0%" style="stop-color:#3498db;stop-opacity:1" />
      <stop offset="100%" style="stop-color:#2c3e50;stop-opacity:1" />
    </linearGradient>
    <linearGradient id="greenGradient" x1="0%" y1="0%" x2="100%" y2="100%">
      <stop offset="0%" style="stop-color:#2ecc71;stop-opacity:1" />
      <stop offset="100%" style="stop-color:#27ae60;stop-opacity:1" />
    </linearGradient>
    <!-- Add glow filter for dark mode -->
    <filter id="glow" x="-30%" y="-30%" width="160%" height="160%">
      <feGaussianBlur stdDeviation="2" result="blur" />
      <feComposite in="SourceGraphic" in2="blur" operator="over" />
    </filter>
    <!-- Add text outline filter -->
    <filter id="textOutline" x="-20%" y="-20%" width="140%" height="140%">
      <feMorphology operator="dilate" radius="0.5" in="SourceAlpha" result="thicken" />
      <feFlood flood-color="#000000" result="black" />
      <feComposite in="black" in2="thicken" operator="in" result="outline" />
      <feMerge>
        <feMergeNode in="outline" />
        <feMergeNode in="SourceGraphic" />
      </feMerge>
    </filter>
  </defs>
  
  <!-- Dark background -->
  <circle cx="100" cy="100" r="90" fill="#121212" stroke="#333333" stroke-width="2"/>
  
  <!-- Network nodes and connections representing multi-agent system -->
  <g id="network" filter="url(#glow)">
    <!-- Central node (main agent) -->
    <circle cx="100" cy="100" r="25" fill="url(#blueGradient)"/>
    
    <!-- Satellite nodes (other agents) -->
    <circle cx="60" cy="60" r="15" fill="url(#greenGradient)"/>
    <circle cx="150" cy="70" r="15" fill="url(#greenGradient)"/>
    <circle cx="140" cy="140" r="15" fill="url(#greenGradient)"/>
    <circle cx="50" cy="130" r="15" fill="url(#greenGradient)"/>
    
    <!-- Connection lines -->
    <line x1="100" y1="100" x2="60" y2="60" stroke="#3498db" stroke-width="3" stroke-opacity="0.9"/>
    <line x1="100" y1="100" x2="150" y2="70" stroke="#3498db" stroke-width="3" stroke-opacity="0.9"/>
    <line x1="100" y1="100" x2="140" y2="140" stroke="#3498db" stroke-width="3" stroke-opacity="0.9"/>
    <line x1="100" y1="100" x2="50" y2="130" stroke="#3498db" stroke-width="3" stroke-opacity="0.9"/>
    
    <!-- Secondary connections between satellite nodes -->
    <line x1="60" y1="60" x2="150" y2="70" stroke="#2ecc71" stroke-width="2" stroke-opacity="0.6" stroke-dasharray="4"/>
    <line x1="150" y1="70" x2="140" y2="140" stroke="#2ecc71" stroke-width="2" stroke-opacity="0.6" stroke-dasharray="4"/>
    <line x1="140" y1="140" x2="50" y2="130" stroke="#2ecc71" stroke-width="2" stroke-opacity="0.6" stroke-dasharray="4"/>
    <line x1="50" y1="130" x2="60" y2="60" stroke="#2ecc71" stroke-width="2" stroke-opacity="0.6" stroke-dasharray="4"/>
  </g>
  
  <!-- Python symbol (subtle snake path through the network) -->
  <path d="M30,100 C45,70 70,50 100,50 C130,50 155,70 170,100 C155,130 130,150 100,150 C70,150 45,130 30,100 Z" 
        fill="none" stroke="#ffd43b" stroke-width="4" stroke-opacity="0.6" stroke-linecap="round" filter="url(#glow)"/>
  
  <!-- SPADE letters in the center with better visibility -->
  <text x="100" y="105" font-family="'Segoe UI', Arial, sans-serif" font-size="18" font-weight="bold" text-anchor="middle" fill="#ffffff" filter="url(#textOutline)">SPADE</text>
</svg>
