<?xml version="1.0" encoding="UTF-8" standalone="no"?>
<svg xmlns="http://www.w3.org/2000/svg" width="200" height="200" viewBox="0 0 200 200">
  <defs>
    <linearGradient id="spadeGradient" x1="0%" y1="0%" x2="100%" y2="100%">
      <stop offset="0%" style="stop-color:#3498db;stop-opacity:1" />
      <stop offset="100%" style="stop-color:#2c3e50;stop-opacity:1" />
    </linearGradient>
  </defs>
  
  <!-- Circle Background -->
  <circle cx="100" cy="100" r="95" fill="white" stroke="#3498db" stroke-width="2"/>
  
  <!-- Classic Spade Symbol -->
  <path d="M100,30 C78,30 60,55 60,80 C60,95 70,110 85,115 C85,115 80,145 80,150 C80,155 90,160 100,160 C110,160 120,155 120,150 C120,145 115,115 115,115 C130,110 140,95 140,80 C140,55 122,30 100,30 Z" 
        fill="url(#spadeGradient)" />
  
  <!-- Letter S for SPADE -->
  <text x="70" y="90" font-family="Arial, sans-serif" font-size="30" font-weight="bold" fill="white">S</text>
  
  <!-- Python Symbol -->
  <path d="M110,80 C115,70 125,75 125,85 C125,95 115,100 110,90" fill="#2ecc71" />
  <path d="M130,90 C125,100 115,95 115,85 C115,75 125,70 130,80" fill="#f1c40f" />
</svg>
